<svg width="16" height="27" viewBox="0 0 16 27" fill="none" xmlns="http://www.w3.org/2000/svg">
<g id="Vector">
<mask id="path-1-inside-1_225_308" fill="white">
<path d="M1.25024 2.36272C1.13922 2.2517 1.05115 2.1199 0.99107 1.97484C0.930986 1.82979 0.900061 1.67432 0.900061 1.51731C0.900061 1.36031 0.930986 1.20484 0.99107 1.05978C1.05115 0.914726 1.13922 0.782927 1.25024 0.671906C1.36126 0.560884 1.49306 0.472818 1.63812 0.412735C1.78317 0.352652 1.93864 0.321726 2.09565 0.321726C2.25265 0.321726 2.40812 0.352652 2.55318 0.412735C2.69823 0.472818 2.83003 0.560884 2.94105 0.671906L14.8903 12.6211C15.0014 12.7321 15.0895 12.8639 15.1496 13.0089C15.2098 13.154 15.2407 13.3095 15.2407 13.4665C15.2407 13.6236 15.2098 13.779 15.1496 13.9241C15.0895 14.0692 15.0014 14.201 14.8903 14.3119L2.94105 26.2611C2.71684 26.4854 2.41274 26.6113 2.09565 26.6113C1.77856 26.6113 1.47445 26.4854 1.25024 26.2611C1.02602 26.0369 0.900061 25.7328 0.900061 25.4157C0.900061 25.0987 1.02602 24.7946 1.25024 24.5703L12.3555 13.4665L1.25024 2.36272Z"/>
</mask>
<path d="M1.25024 2.36272C1.13922 2.2517 1.05115 2.1199 0.99107 1.97484C0.930986 1.82979 0.900061 1.67432 0.900061 1.51731C0.900061 1.36031 0.930986 1.20484 0.99107 1.05978C1.05115 0.914726 1.13922 0.782927 1.25024 0.671906C1.36126 0.560884 1.49306 0.472818 1.63812 0.412735C1.78317 0.352652 1.93864 0.321726 2.09565 0.321726C2.25265 0.321726 2.40812 0.352652 2.55318 0.412735C2.69823 0.472818 2.83003 0.560884 2.94105 0.671906L14.8903 12.6211C15.0014 12.7321 15.0895 12.8639 15.1496 13.0089C15.2098 13.154 15.2407 13.3095 15.2407 13.4665C15.2407 13.6236 15.2098 13.779 15.1496 13.9241C15.0895 14.0692 15.0014 14.201 14.8903 14.3119L2.94105 26.2611C2.71684 26.4854 2.41274 26.6113 2.09565 26.6113C1.77856 26.6113 1.47445 26.4854 1.25024 26.2611C1.02602 26.0369 0.900061 25.7328 0.900061 25.4157C0.900061 25.0987 1.02602 24.7946 1.25024 24.5703L12.3555 13.4665L1.25024 2.36272Z" fill="white"/>
<path d="M1.25024 2.36272L-4.15736 7.77032L-4.15699 7.77068L1.25024 2.36272ZM2.09565 0.321726V-7.32577V0.321726ZM2.94105 0.671906L8.34865 -4.73569L2.94105 0.671906ZM14.8903 12.6211L9.48267 18.0287L9.48568 18.0317L14.8903 12.6211ZM14.8903 14.3119L9.48568 8.90133L9.48267 8.90434L14.8903 14.3119ZM2.94105 26.2611L8.34865 31.6687H8.34865L2.94105 26.2611ZM1.25024 24.5703L-4.15699 19.1624L-4.15736 19.1627L1.25024 24.5703ZM12.3555 13.4665L17.7628 18.8745L23.1715 13.4665L17.7628 8.05857L12.3555 13.4665ZM6.65784 -3.04488C7.257 -2.44571 7.73222 -1.73445 8.05644 -0.951729L-6.0743 4.90141C-5.62992 5.97424 -4.97856 6.94911 -4.15736 7.77032L6.65784 -3.04488ZM8.05644 -0.951729C8.38066 -0.168976 8.54756 0.670006 8.54756 1.51731L-6.74744 1.51731C-6.74744 2.67863 -6.51869 3.82855 -6.0743 4.90141L8.05644 -0.951729ZM8.54756 1.51731C8.54756 2.36461 8.38067 3.20359 8.05644 3.98635L-6.0743 -1.86679C-6.5187 -0.793913 -6.74744 0.356005 -6.74744 1.51731L8.54756 1.51731ZM8.05644 3.98635C7.73221 4.7691 7.25698 5.48036 6.65784 6.0795L-4.15736 -4.73569C-4.97854 -3.91451 -5.6299 -2.93965 -6.0743 -1.86679L8.05644 3.98635ZM6.65784 6.0795C6.05872 6.67862 5.34746 7.15387 4.56469 7.4781L-1.28845 -6.65263C-2.36134 -6.20823 -3.3362 -5.55685 -4.15736 -4.73569L6.65784 6.0795ZM4.56469 7.4781C3.78192 7.80233 2.94294 7.96922 2.09565 7.96922L2.09565 -7.32577C0.934338 -7.32577 -0.21558 -7.09703 -1.28845 -6.65263L4.56469 7.4781ZM2.09565 7.96922C1.24835 7.96922 0.409372 7.80233 -0.373392 7.4781L5.47975 -6.65263C4.40687 -7.09703 3.25696 -7.32577 2.09565 -7.32577L2.09565 7.96922ZM-0.373392 7.4781C-1.15617 7.15387 -1.86742 6.67862 -2.46654 6.0795L8.34865 -4.73569C7.52749 -5.55685 6.55263 -6.20823 5.47975 -6.65263L-0.373392 7.4781ZM-2.46654 6.0795L9.48267 18.0287L20.2979 7.21352L8.34865 -4.73569L-2.46654 6.0795ZM9.48568 18.0317C8.88572 17.4324 8.40979 16.7208 8.08509 15.9375L22.2142 10.0804C21.7692 9.00699 21.117 8.03176 20.2949 7.21052L9.48568 18.0317ZM8.08509 15.9375C7.76037 15.1542 7.59323 14.3145 7.59323 13.4665L22.8882 13.4665C22.8882 12.3045 22.6592 11.1539 22.2142 10.0804L8.08509 15.9375ZM7.59323 13.4665C7.59323 12.6185 7.76037 11.7789 8.08509 10.9956L22.2142 16.8526C22.6592 15.7792 22.8882 14.6286 22.8882 13.4665L7.59323 13.4665ZM8.08509 10.9956C8.40979 10.2123 8.88572 9.50063 9.48568 8.90133L20.2949 19.7225C21.117 18.9013 21.7692 17.9261 22.2142 16.8526L8.08509 10.9956ZM9.48267 8.90434L-2.46654 20.8536L8.34865 31.6687L20.2979 19.7195L9.48267 8.90434ZM-2.46654 20.8536C-1.25657 19.6436 0.384499 18.9638 2.09565 18.9638L2.09565 34.2588C4.44097 34.2588 6.69025 33.3271 8.34865 31.6687L-2.46654 20.8536ZM2.09565 18.9638C3.8068 18.9638 5.44786 19.6436 6.65784 20.8536L-4.15736 31.6687C-2.49895 33.3271 -0.24968 34.2588 2.09565 34.2588L2.09565 18.9638ZM6.65784 20.8536C7.86781 22.0635 8.54756 23.7046 8.54756 25.4157L-6.74744 25.4157C-6.74744 27.7611 -5.81576 30.0103 -4.15736 31.6687L6.65784 20.8536ZM8.54756 25.4157C8.54756 27.1269 7.86781 28.768 6.65784 29.9779L-4.15736 19.1627C-5.81576 20.8211 -6.74744 23.0704 -6.74744 25.4157L8.54756 25.4157ZM6.65747 29.9783L17.7628 18.8745L6.94831 8.05857L-4.15699 19.1624L6.65747 29.9783ZM17.7628 8.05857L6.65747 -3.04524L-4.15699 7.77068L6.94831 18.8745L17.7628 8.05857Z" fill="white" mask="url(#path-1-inside-1_225_308)"/>
</g>
</svg>
